<svg class="inception-heart" xmlns="http://www.w3.org/2000/svg" width="604.748" height="560" viewBox="177.626 0 604.748 560"><path fill="#FF2E2E" d="M480.033 560c244.453-146.615 288.588-307.482 294.02-335.994 5.435-28.504 40.97-177.838-92.346-217.883C533-23.97 480.033 80.103 480.033 80.103S438.613 1.033 329.97.01C221.32-1.01 176.732 73.773 177.64 152.964c0 84.617 39.61 245.487 302.393 407.036z"/><path opacity=".1" d="M480.006 336c48.89-29.323 57.718-61.496 58.804-67.198 1.087-5.7 8.194-35.568-18.47-43.577-29.74-6.02-40.334 14.796-40.334 14.796s-8.284-15.81-30.013-16.01c-21.73-.203-30.647 14.75-30.466 30.59 0 16.926 7.922 49.1 60.48 81.41z"/><path opacity=".1" d="M480.01 378c85.56-51.315 101.006-107.62 102.908-117.598 1.902-9.977 14.34-62.243-32.32-76.26-52.05-10.532-70.586 25.895-70.586 25.895s-14.497-27.675-52.523-28.033c-38.03-.357-53.64 25.816-53.32 53.534 0 29.615 13.86 85.92 105.832 142.462z"/><path opacity=".1" d="M480.018 434c134.45-80.64 158.724-169.115 161.71-184.796 2.99-15.677 22.534-97.812-50.79-119.836-81.79-16.55-110.92 40.69-110.92 40.69s-22.78-43.49-82.535-44.053c-59.756-.56-84.28 40.57-83.782 84.125 0 46.54 21.79 135.018 166.32 223.87z"/><path opacity=".1" d="M480.024 499c183.34-109.96 216.44-230.612 220.515-251.995 4.07-21.378 30.72-133.38-69.26-163.413-111.54-22.57-151.26 55.486-151.26 55.486s-31.07-59.304-112.55-60.07c-81.488-.765-114.93 55.322-114.25 114.717 0 63.46 29.71 184.113 226.795 305.275z"/></svg>